<mxfile host="app.diagrams.net" modified="2023-12-07T21:57:04.650Z" agent="Mozilla/5.0 (Windows NT 10.0; Win64; x64) AppleWebKit/537.36 (KHTML, like Gecko) Chrome/119.0.0.0 Safari/537.36" etag="PnHLF-bUZoaUgstbQKvM" version="22.1.7" type="google">
  <diagram name="Page-1" id="vGIZ83af2mh3m1QAjRd4">
    <mxGraphModel grid="1" page="1" gridSize="10" guides="1" tooltips="1" connect="1" arrows="1" fold="1" pageScale="1" pageWidth="850" pageHeight="1100" math="0" shadow="0">
      <root>
        <mxCell id="0" />
        <mxCell id="1" parent="0" />
        <mxCell id="6SbKTyheaOOvxxZuOr0k-1" value="" style="rounded=1;whiteSpace=wrap;html=1;" vertex="1" parent="1">
          <mxGeometry x="491" y="-1" width="320" height="40" as="geometry" />
        </mxCell>
        <mxCell id="6SbKTyheaOOvxxZuOr0k-6" value="" style="rounded=0;whiteSpace=wrap;html=1;" vertex="1" parent="1">
          <mxGeometry x="508" y="4" width="60" height="30" as="geometry" />
        </mxCell>
        <mxCell id="6SbKTyheaOOvxxZuOr0k-7" value="" style="rounded=0;whiteSpace=wrap;html=1;" vertex="1" parent="1">
          <mxGeometry x="593" y="4" width="64" height="30" as="geometry" />
        </mxCell>
        <mxCell id="TsWubHD5R3ELcLYQBSJ1-2" value="" style="rounded=0;whiteSpace=wrap;html=1;" vertex="1" parent="1">
          <mxGeometry x="691" y="4" width="40" height="30" as="geometry" />
        </mxCell>
        <mxCell id="TsWubHD5R3ELcLYQBSJ1-3" value="" style="ellipse;whiteSpace=wrap;html=1;aspect=fixed;" vertex="1" parent="1">
          <mxGeometry x="761" y="-1" width="40" height="40" as="geometry" />
        </mxCell>
        <mxCell id="TsWubHD5R3ELcLYQBSJ1-4" value="" style="rounded=1;whiteSpace=wrap;html=1;shadow=1;" vertex="1" parent="1">
          <mxGeometry x="280" y="108" width="280" height="80" as="geometry" />
        </mxCell>
        <mxCell id="TsWubHD5R3ELcLYQBSJ1-5" value="" style="rounded=1;whiteSpace=wrap;html=1;" vertex="1" parent="1">
          <mxGeometry x="200" y="223" width="440" height="40" as="geometry" />
        </mxCell>
        <mxCell id="TsWubHD5R3ELcLYQBSJ1-6" value="" style="rounded=0;whiteSpace=wrap;html=1;" vertex="1" parent="1">
          <mxGeometry x="277" y="228" width="230" height="30" as="geometry" />
        </mxCell>
        <mxCell id="TsWubHD5R3ELcLYQBSJ1-7" value="" style="ellipse;whiteSpace=wrap;html=1;aspect=fixed;" vertex="1" parent="1">
          <mxGeometry x="220" y="228" width="30" height="30" as="geometry" />
        </mxCell>
        <mxCell id="TsWubHD5R3ELcLYQBSJ1-8" value="" style="ellipse;whiteSpace=wrap;html=1;aspect=fixed;" vertex="1" parent="1">
          <mxGeometry x="530" y="228" width="30" height="30" as="geometry" />
        </mxCell>
        <mxCell id="TsWubHD5R3ELcLYQBSJ1-9" value="" style="ellipse;whiteSpace=wrap;html=1;aspect=fixed;" vertex="1" parent="1">
          <mxGeometry x="590" y="228" width="30" height="30" as="geometry" />
        </mxCell>
        <mxCell id="TsWubHD5R3ELcLYQBSJ1-10" value="" style="rounded=0;whiteSpace=wrap;html=1;" vertex="1" parent="1">
          <mxGeometry x="200" y="320" width="440" height="40" as="geometry" />
        </mxCell>
        <mxCell id="TsWubHD5R3ELcLYQBSJ1-11" value="Text" style="text;html=1;strokeColor=none;fillColor=none;align=center;verticalAlign=middle;whiteSpace=wrap;rounded=0;" vertex="1" parent="1">
          <mxGeometry x="230" y="325" width="80" height="30" as="geometry" />
        </mxCell>
        <mxCell id="TsWubHD5R3ELcLYQBSJ1-12" value="Text" style="text;html=1;strokeColor=none;fillColor=none;align=center;verticalAlign=middle;whiteSpace=wrap;rounded=0;" vertex="1" parent="1">
          <mxGeometry x="320" y="325" width="60" height="30" as="geometry" />
        </mxCell>
        <mxCell id="TsWubHD5R3ELcLYQBSJ1-13" value="Text" style="text;html=1;strokeColor=none;fillColor=none;align=center;verticalAlign=middle;whiteSpace=wrap;rounded=0;" vertex="1" parent="1">
          <mxGeometry x="390" y="325" width="60" height="30" as="geometry" />
        </mxCell>
        <mxCell id="TsWubHD5R3ELcLYQBSJ1-14" value="Text" style="text;html=1;strokeColor=none;fillColor=none;align=center;verticalAlign=middle;whiteSpace=wrap;rounded=0;" vertex="1" parent="1">
          <mxGeometry x="460" y="325" width="60" height="30" as="geometry" />
        </mxCell>
        <mxCell id="TsWubHD5R3ELcLYQBSJ1-15" value="Text" style="text;html=1;strokeColor=none;fillColor=none;align=center;verticalAlign=middle;whiteSpace=wrap;rounded=0;" vertex="1" parent="1">
          <mxGeometry x="540" y="325" width="60" height="30" as="geometry" />
        </mxCell>
        <mxCell id="TsWubHD5R3ELcLYQBSJ1-16" value="Text" style="text;html=1;strokeColor=none;fillColor=none;align=center;verticalAlign=middle;whiteSpace=wrap;rounded=0;" vertex="1" parent="1">
          <mxGeometry x="508" y="4" width="60" height="30" as="geometry" />
        </mxCell>
        <mxCell id="TsWubHD5R3ELcLYQBSJ1-17" value="Text" style="text;html=1;strokeColor=none;fillColor=none;align=center;verticalAlign=middle;whiteSpace=wrap;rounded=0;" vertex="1" parent="1">
          <mxGeometry x="593" y="4" width="60" height="30" as="geometry" />
        </mxCell>
        <mxCell id="TsWubHD5R3ELcLYQBSJ1-18" value="" style="rounded=0;whiteSpace=wrap;html=1;" vertex="1" parent="1">
          <mxGeometry x="20" y="410" width="790" height="80" as="geometry" />
        </mxCell>
        <mxCell id="TsWubHD5R3ELcLYQBSJ1-19" value="" style="rounded=0;whiteSpace=wrap;html=1;" vertex="1" parent="1">
          <mxGeometry x="20" y="410" width="790" height="40" as="geometry" />
        </mxCell>
        <mxCell id="TsWubHD5R3ELcLYQBSJ1-20" value="Text" style="text;html=1;strokeColor=none;fillColor=none;align=center;verticalAlign=middle;whiteSpace=wrap;rounded=0;" vertex="1" parent="1">
          <mxGeometry x="30" y="415" width="60" height="30" as="geometry" />
        </mxCell>
        <mxCell id="TsWubHD5R3ELcLYQBSJ1-21" value="Text" style="text;html=1;strokeColor=none;fillColor=none;align=center;verticalAlign=middle;whiteSpace=wrap;rounded=0;" vertex="1" parent="1">
          <mxGeometry x="30" y="455" width="60" height="30" as="geometry" />
        </mxCell>
        <mxCell id="TsWubHD5R3ELcLYQBSJ1-22" value="Text" style="text;html=1;strokeColor=none;fillColor=none;align=center;verticalAlign=middle;whiteSpace=wrap;rounded=0;" vertex="1" parent="1">
          <mxGeometry x="74" y="455" width="60" height="30" as="geometry" />
        </mxCell>
        <mxCell id="TsWubHD5R3ELcLYQBSJ1-23" value="Text" style="text;html=1;strokeColor=none;fillColor=none;align=center;verticalAlign=middle;whiteSpace=wrap;rounded=0;" vertex="1" parent="1">
          <mxGeometry x="122" y="455" width="60" height="30" as="geometry" />
        </mxCell>
        <mxCell id="TsWubHD5R3ELcLYQBSJ1-24" value="Text" style="text;html=1;strokeColor=none;fillColor=none;align=center;verticalAlign=middle;whiteSpace=wrap;rounded=0;" vertex="1" parent="1">
          <mxGeometry x="176" y="455" width="60" height="30" as="geometry" />
        </mxCell>
        <mxCell id="TsWubHD5R3ELcLYQBSJ1-25" value="Text" style="text;html=1;strokeColor=none;fillColor=none;align=center;verticalAlign=middle;whiteSpace=wrap;rounded=0;" vertex="1" parent="1">
          <mxGeometry x="744" y="455" width="60" height="30" as="geometry" />
        </mxCell>
        <mxCell id="TsWubHD5R3ELcLYQBSJ1-26" value="Text" style="text;html=1;strokeColor=none;fillColor=none;align=center;verticalAlign=middle;whiteSpace=wrap;rounded=0;" vertex="1" parent="1">
          <mxGeometry x="700" y="455" width="60" height="30" as="geometry" />
        </mxCell>
        <mxCell id="TsWubHD5R3ELcLYQBSJ1-27" value="Text" style="text;html=1;strokeColor=none;fillColor=none;align=center;verticalAlign=middle;whiteSpace=wrap;rounded=0;" vertex="1" parent="1">
          <mxGeometry x="657" y="455" width="60" height="30" as="geometry" />
        </mxCell>
        <mxCell id="TsWubHD5R3ELcLYQBSJ1-28" value="Text" style="text;html=1;strokeColor=none;fillColor=none;align=center;verticalAlign=middle;whiteSpace=wrap;rounded=0;" vertex="1" parent="1">
          <mxGeometry x="376" y="455" width="115" height="30" as="geometry" />
        </mxCell>
        <mxCell id="TsWubHD5R3ELcLYQBSJ1-29" value="" style="rounded=1;whiteSpace=wrap;html=1;shadow=1;fillColor=#d5e8d4;strokeColor=#82b366;" vertex="1" parent="1">
          <mxGeometry x="425" y="278" width="105" height="32" as="geometry" />
        </mxCell>
        <mxCell id="TsWubHD5R3ELcLYQBSJ1-30" value="" style="rounded=1;whiteSpace=wrap;html=1;shadow=1;fillColor=#d5e8d4;strokeColor=#82b366;" vertex="1" parent="1">
          <mxGeometry x="305" y="278" width="103" height="30" as="geometry" />
        </mxCell>
        <mxCell id="TsWubHD5R3ELcLYQBSJ1-31" value="Text" style="text;html=1;strokeColor=none;fillColor=none;align=center;verticalAlign=middle;whiteSpace=wrap;rounded=0;" vertex="1" parent="1">
          <mxGeometry x="327" y="280" width="60" height="30" as="geometry" />
        </mxCell>
        <mxCell id="TsWubHD5R3ELcLYQBSJ1-32" value="Text" style="text;html=1;strokeColor=none;fillColor=none;align=center;verticalAlign=middle;whiteSpace=wrap;rounded=0;" vertex="1" parent="1">
          <mxGeometry x="447.5" y="280" width="62.5" height="30" as="geometry" />
        </mxCell>
      </root>
    </mxGraphModel>
  </diagram>
</mxfile>
